<?xml version="1.0" standalone="no"?><!DOCTYPE svg PUBLIC "-//W3C//DTD SVG 1.1//EN" "http://www.w3.org/Graphics/SVG/1.1/DTD/svg11.dtd"><svg t="1716900796974" class="icon" viewBox="0 0 1024 1024" version="1.1" xmlns="http://www.w3.org/2000/svg" p-id="3452" xmlns:xlink="http://www.w3.org/1999/xlink" width="200" height="200"><path d="M848 730.4H579.2v100.8h67.2c18.6 0 33.6 15 33.6 33.6s-15 33.6-33.6 33.6H377.6c-18.6 0-33.6-15-33.6-33.6s15-33.6 33.6-33.6h67.2V730.4H176c-37.1 0-67.2-30.1-67.2-67.2V192.8c0-37.1 30.1-67.2 67.2-67.2h672c37.1 0 67.2 30.1 67.2 67.2v470.4c0 37.1-30.1 67.2-67.2 67.2z m0-168H176v67.2h672v-67.2z" fill="#d81e06" p-id="3453"></path></svg>